{"title":"Docklands 2010 Serie 2DVDrip Dutch Klam","uid":6840961,"size":4069187460,"categoryP":"video","categoryS":"movies","magnet":"?xt=urn:btih:8146db694b5a2724b7461b618d5f12eb305eb302&amp;dn=Docklands+2010+Serie+2DVDrip+Dutch+Klam&amp;tr=udp%3A%2F%2Ftracker.openbittorrent.com%3A80&amp;tr=udp%3A%2F%2Fopen.demonii.com%3A1337&amp;tr=udp%3A%2F%2Ftracker.coppersurfer.tk%3A6969&amp;tr=udp%3A%2F%2Fexodus.desync.com%3A6969","seeders":0,"leechers":1,"uploader":"Klambake","files":-1,"time":1322162351,"description":"Dutch spoken, Nederlands gesproken,\nDe 11-jarige tweeling Arend en Zus wonen op een kleine scheepswerf in het havengebied van een grote stad bij hun pleeggezin de familie Kater. De tweeling vormt het hart van een hechte groep vrienden die het ruige havengebied, de Docklands, als speelplaats gebruikt. De Docklands is een spannende plek waar ze op zoek gaan naar avontuur en waar ze elkaar steeds uitdagen. Wie durft het meest? Wie is de baas? Wie hoort er even niet meer bij? Het is een spannende zomer waarin ze veel plezier hebben, maar waar ook hun onderlinge vriendschappen voortdurend op het spel komen te staan.\n\n------------------ Dutch Friends ------------------\nYou can find my Friends at: http://www.Film-Test.nl \n------ They got my dutch subs ----- and more ------\n\nGeneral:\n\nComplete name                    : Docklands\\01Zone3.avi\nFormat                           : AVI\nFormat/Info                      : Audio Video Interleave\nFile size                        : 474 MiB\nDuration                         : 24mn 47s\nOverall bit rate                 : 2 672 Kbps\n\nVideo:\n\nFormat                           : MPEG-4 Visual\nFormat profile                   : Simple@L3\nFormat settings, BVOP            : No\nFormat settings, QPel            : No\nFormat settings, GMC             : No warppoints\nFormat settings, Matrix          : Default (H.263)\nCodec ID                         : XVID\nCodec ID/Hint                    : XviD\nDuration                         : 24mn 47s\nBit rate                         : 2 213 Kbps\nWidth                            : 704 pixels\nHeight                           : 396 pixels\nDisplay aspect ratio             : 16:9\nFrame rate                       : 25.000 fps\nColor space                      : YUV\nChroma subsampling               : 4:2:0\nBit depth                        : 8 bits\nScan type                        : Progressive\nCompression mode                 : Lossy\nBits/(Pixel*Frame)               : 0.318\nStream size                      : 393 MiB (83%)\nWriting library                  : XviD 1.1.2 (UTC 2006-11-01)\n\nAudio:\n\nFormat                           : AC-3\nFormat/Info                      : Audio Coding 3\nMode extension                   : CM (complete main)\nCodec ID                         : 2000\nDuration                         : 24mn 47s\nBit rate mode                    : Constant\nBit rate                         : 448 Kbps\nChannel(s)                       : 6 channels\nChannel positions                : Front: L C R, Side: L R, LFE\nSampling rate                    : 48.0 KHz\nBit depth                        : 16 bits\nCompression mode                 : Lossy\nStream size                      : 79.5 MiB (17%)\nAlignment                        : Aligned on interleaves\nInterleave, duration             : 32 ms (0.80 video frame)\nInterleave, preload duration     : 416 ms\n\n","torrent":{"xt":"urn:btih:8146db694b5a2724b7461b618d5f12eb305eb302","amp;dn":"Docklands+2010+Serie+2DVDrip+Dutch+Klam","amp;tr":["udp%3A%2F%2Ftracker.openbittorrent.com%3A80","udp%3A%2F%2Fopen.demonii.com%3A1337","udp%3A%2F%2Ftracker.coppersurfer.tk%3A6969","udp%3A%2F%2Fexodus.desync.com%3A6969"],"infoHash":"8146db694b5a2724b7461b618d5f12eb305eb302","infoHashBuffer":{"type":"Buffer","data":[129,70,219,105,75,90,39,36,183,70,27,97,141,95,18,235,48,94,179,2]},"announce":[],"urlList":[]}}